<?xml version="1.0" encoding="utf-8"?>
<!-- Generator: Adobe Illustrator 26.1.0, SVG Export Plug-In . SVG Version: 6.00 Build 0)  -->
<svg version="1.1" id="Layer_1" xmlns="http://www.w3.org/2000/svg" xmlns:xlink="http://www.w3.org/1999/xlink" x="0px" y="0px"
	 viewBox="0 0 60 60" style="enable-background:new 0 0 60 60;" xml:space="preserve">
<style type="text/css">
	.st0{fill:url(#SVGID_1_);}
	.st1{fill:#FFFFFF;}
	.st2{font-family:'Mukta-SemiBold';}
	.st3{font-size:3.338px;}
</style>
<g>
	<radialGradient id="SVGID_1_" cx="30" cy="30" r="30" gradientUnits="userSpaceOnUse">
		<stop  offset="3.096984e-07" style="stop-color:#F16334;stop-opacity:0.7"/>
		<stop  offset="1" style="stop-color:#E64814"/>
	</radialGradient>
	<circle class="st0" cx="30" cy="30" r="30"/>
	<path class="st1" d="M8.71,20.65c-0.99,0-1.69,0.26-2.08,0.79c-0.4,0.52-0.6,1.41-0.6,2.65v3.44c0,0.89-0.17,1.61-0.51,2.14
		c-0.34,0.53-0.83,0.93-1.47,1.18v0.09c0.62,0.33,1.11,0.84,1.46,1.52c0.35,0.68,0.52,1.54,0.52,2.59v3.41
		c0,0.97,0.2,1.65,0.61,2.04c0.41,0.39,1.1,0.62,2.07,0.7v2.3c-1.61-0.04-2.91-0.47-3.91-1.3c-0.99-0.83-1.49-1.97-1.49-3.42v-4.02
		c0-0.87-0.2-1.55-0.61-2.03c-0.41-0.48-1.06-0.73-1.95-0.77v-2.07c0.87-0.1,1.52-0.35,1.94-0.76c0.42-0.41,0.63-1.06,0.63-1.95
		V22.8c0-0.62,0.12-1.2,0.35-1.73c0.23-0.53,0.58-1,1.03-1.38c0.46-0.39,1.02-0.69,1.69-0.92c0.67-0.22,1.44-0.34,2.32-0.34V20.65z"
		/>
	<path class="st1" d="M50.92,18.4c0.84,0,1.59,0.12,2.26,0.35c0.67,0.23,1.24,0.55,1.7,0.96c0.47,0.41,0.82,0.89,1.06,1.46
		c0.24,0.56,0.36,1.18,0.36,1.84v4.2c0,1.71,0.85,2.63,2.56,2.77v2.07c-0.87,0.08-1.52,0.34-1.94,0.77
		c-0.42,0.44-0.63,1.09-0.63,1.97v4.2c0,1.34-0.48,2.43-1.44,3.26c-0.96,0.84-2.28,1.26-3.95,1.28v-2.24
		c0.99-0.04,1.69-0.29,2.08-0.74c0.4-0.46,0.6-1.24,0.6-2.35v-3.44c0-0.97,0.17-1.76,0.52-2.36c0.35-0.6,0.84-1.05,1.46-1.34v-0.09
		c-1.32-0.6-1.98-1.85-1.98-3.73v-3.41c0-1.11-0.2-1.88-0.6-2.33c-0.4-0.45-1.09-0.7-2.08-0.76V18.4z"/>
	<g id="XMLID_00000056429057622390736450000017898564627356896142_">
		<path class="st1" d="M47.98,36.71c-3.04,2.71-8.25,2.1-12.07,2.15c-0.05,0-0.09-0.04-0.09-0.09V23.89c0-0.05-0.04-0.09-0.09-0.09
			h-8.38c-0.57,0-1.13,0.15-1.61,0.45c0,0-0.01,0-0.01,0.01c-1.02,0.64-1.08,2.34-0.14,3.01c1.83,1.25,5.79,1.63,7.19,3.47
			c0,0,0,0,0,0.01c1.78,1.86,1.43,5.07-0.59,6.63c-1.38,1.06-3.15,1.49-4.97,1.49H11.8c-0.05,0-0.09-0.04-0.09-0.09V21.21
			c0-0.05,0.04-0.09,0.09-0.09h3.25c0.05,0,0.09,0.04,0.09,0.09v14.8c0,0.05,0.04,0.09,0.09,0.09h6.86l0,0h5.97
			c0.48,0,0.95-0.11,1.37-0.33c0.05-0.02,0.1-0.05,0.14-0.08c0.78-0.48,1.06-1.54,0.72-2.39c0,0,0-0.01,0-0.01
			c-0.55-1.1-1.76-1.4-3.01-1.85c-1.58-0.48-3.66-1.2-4.69-2.25c-0.78-0.72-1.17-1.73-1.17-3.04c0.04-3.39,2.68-5.04,6.24-5.04v0
			h11.49c0.05,0,0.09,0.04,0.09,0.09v14.86c0,0.05,0.04,0.09,0.09,0.09c2.89,0.12,6.15-0.25,7.36-3.33
			c0.91-2.06,0.77-6.05-1.04-7.52c0,0-0.01,0-0.01-0.01c-0.84-0.92-2.21-1.3-3.64-1.44c-0.05,0-0.08-0.04-0.08-0.09v-2.57
			c0-0.05,0.04-0.09,0.09-0.09l0,0c3.49,0,6.9,1.45,8.22,4.8C51.61,29.37,50.95,34.36,47.98,36.71z"/>
		<rect x="22.1" y="36.1" class="st1" width="0.34" height="0"/>
	</g>
	<text transform="matrix(1 0 0 1 11.7051 43.4951)" class="st1 st2 st3">Live Software Developer </text>
</g>
</svg>
